<svg xmlns="http://www.w3.org/2000/svg" version="1.1" viewBox="0 0 1024 1024"><g fill="#e07a5f" stroke="none"><path d="M467.00,369.00 L457.00,373.00 L449.00,380.00 L442.00,396.00 L442.00,663.00 L447.00,675.00 L456.00,684.00 L468.00,689.00 L480.00,689.00 L491.00,685.00 L500.00,677.00 L507.00,661.00 L507.00,396.00 L503.00,385.00 L493.00,374.00 L482.00,369.00 Z" /><path d="M374.00,438.00 L364.00,440.00 L355.00,445.00 L348.00,453.00 L343.00,466.00 L343.00,589.00 L349.00,603.00 L358.00,611.00 L368.00,615.00 L383.00,615.00 L394.00,610.00 L402.00,602.00 L407.00,591.00 L408.00,468.00 L405.00,457.00 L397.00,446.00 L387.00,440.00 Z" /><path d="M274.00,489.00 L259.00,494.00 L248.00,505.00 L244.00,516.00 L244.00,536.00 L248.00,549.00 L258.00,560.00 L270.00,565.00 L282.00,565.00 L294.00,560.00 L304.00,549.00 L307.00,541.00 L308.00,520.00 L303.00,504.00 L295.00,495.00 L284.00,490.00 Z" /><path d="M579.00,758.00 Z" /><path d="M571.00,758.00 Z" /><path d="M566.00,757.00 Z" /><path d="M563.00,756.00 Z" /><path d="M590.00,755.00 Z" /><path d="M559.00,754.00 Z" /><path d="M596.00,751.00 Z" /><path d="M600.00,747.00 Z" /><path d="M549.00,745.00 Z" /><path d="M603.00,743.00 Z" /><path d="M547.00,742.00 Z" /><path d="M546.00,740.00 Z" /><path d="M605.00,739.00 Z" /><path d="M545.00,738.00 Z" /><path d="M606.00,737.00 Z" /><path d="M544.00,735.00 Z" /><path d="M543.00,731.00 Z" /><path d="M681.00,632.00 Z" /><path d="M670.00,632.00 Z" /><path d="M685.00,631.00 Z" /><path d="M688.00,630.00 Z" /><path d="M690.00,629.00 Z" /><path d="M692.00,628.00 Z" /><path d="M657.00,627.00 Z" /><path d="M695.00,626.00 Z" /><path d="M652.00,623.00 Z" /><path d="M702.00,619.00 Z" /><path d="M648.00,618.00 Z" /><path d="M704.00,616.00 Z" /><path d="M644.00,610.00 Z" /><path d="M708.00,606.00 Z" /><path d="M643.00,606.00 Z" /><path d="M774.00,556.00 L776.00,556.00 Z" /><path d="M781.00,555.00 Z" /><path d="M763.00,554.00 Z" /><path d="M761.00,553.00 Z" /><path d="M759.00,552.00 Z" /><path d="M757.00,551.00 Z" /><path d="M752.00,547.00 L753.00,548.00 Z" /><path d="M749.00,544.00 L750.00,545.00 Z" /><path d="M747.00,541.00 Z" /><path d="M567.00,538.00 Z" /><path d="M744.00,535.00 Z" /><path d="M587.00,535.00 Z" /><path d="M561.00,533.00 Z" /><path d="M743.00,532.00 Z" /><path d="M590.00,531.00 Z" /><path d="M591.00,529.00 Z" /><path d="M807.00,528.00 Z" /><path d="M742.00,526.00 Z" /><path d="M592.00,525.00 Z" /><path d="M592.00,520.00 Z" /><path d="M558.00,520.00 Z" /><path d="M578.00,506.00 Z" /><path d="M572.00,506.00 Z" /><path d="M742.00,503.00 Z" /><path d="M807.00,502.00 Z" /><path d="M743.00,497.00 Z" /><path d="M744.00,494.00 Z" /><path d="M802.00,488.00 Z" /><path d="M794.00,480.00 Z" /><path d="M756.00,479.00 Z" /><path d="M764.00,475.00 Z" /><path d="M781.00,474.00 Z" /><path d="M768.00,474.00 Z" /><path d="M708.00,424.00 Z" /><path d="M643.00,423.00 Z" /><path d="M707.00,420.00 Z" /><path d="M645.00,417.00 Z" /><path d="M646.00,415.00 Z" /><path d="M703.00,412.00 Z" /><path d="M648.00,412.00 Z" /><path d="M694.00,403.00 Z" /><path d="M657.00,403.00 Z" /><path d="M686.00,399.00 Z" /><path d="M665.00,399.00 Z" /><path d="M682.00,398.00 Z" /><path d="M669.00,398.00 Z" /><path d="M608.00,311.00 L608.00,728.00 Z" /><path d="M543.00,309.00 Z" /><path d="M607.00,305.00 Z" /><path d="M544.00,305.00 Z" /><path d="M606.00,302.00 Z" /><path d="M605.00,300.00 Z" /><path d="M604.00,298.00 Z" /><path d="M602.00,295.00 Z" /><path d="M550.00,294.00 Z" /><path d="M554.00,290.00 L553.00,291.00 Z" /><path d="M595.00,288.00 Z" /><path d="M558.00,287.00 Z" /><path d="M560.00,286.00 Z" /><path d="M562.00,285.00 Z" /><path d="M587.00,284.00 Z" /><path d="M565.00,284.00 Z" /><path d="M583.00,283.00 Z" /></g><g fill="#3d405b" stroke="none"><path d="M569.00,283.00 L551.00,293.00 L543.00,310.00 L543.00,730.00 L548.00,743.00 L556.00,752.00 L578.00,758.00 L597.00,750.00 L607.00,733.00 L607.00,306.00 L601.00,294.00 L593.00,287.00 L582.00,283.00 Z" /><path d="M670.00,398.00 L656.00,404.00 L647.00,414.00 L643.00,424.00 L643.00,605.00 L647.00,616.00 L656.00,626.00 L666.00,631.00 L680.00,632.00 L696.00,625.00 L705.00,614.00 L708.00,605.00 L708.00,425.00 L704.00,414.00 L695.00,404.00 L681.00,398.00 Z" /><path d="M769.00,474.00 L755.00,480.00 L746.00,490.00 L742.00,505.00 L742.00,525.00 L746.00,539.00 L751.00,546.00 L756.00,550.00 L767.00,555.00 L780.00,555.00 L794.00,549.00 L803.00,539.00 L807.00,527.00 L807.00,503.00 L803.00,490.00 L795.00,481.00 L784.00,475.00 Z" /></g><g fill="#ffffff" stroke="none"><path d="M569.00,507.00 L565.00,509.00 L559.00,517.00 L559.00,529.00 L564.00,536.00 L570.00,539.00 L580.00,539.00 L589.00,532.00 L592.00,524.00 L591.00,517.00 L589.00,513.00 L581.00,507.00 Z" /></g></svg>